<svg width="195" height="185" viewBox="0 0 195 185" fill="none" xmlns="http://www.w3.org/2000/svg">
<g clip-path="url(#clip0_605_79)">
<path d="M157.096 184.718L97.0858 153.153L37.0614 184.695L48.5369 117.867L-0.00930321 70.5275L67.0936 60.7904L97.115 -0.0082359L127.112 60.8031L194.211 70.5667L145.647 117.886L157.096 184.718Z" fill="#FFCC00"/>
<path d="M127.315 60.416C96.9252 101.785 96.5952 102.235 96.5952 102.235L194.006 70.336L127.315 60.416Z" fill="#FFE680"/>
<path d="M97.0948 101.346V153.288L36.4648 184.405L97.0948 101.346Z" fill="#FFDD55"/>
<path d="M97.0952 101.346L156.708 182.822L145.519 116.838L97.0952 101.346Z" fill="#FFDD55"/>
<path d="M0.384766 70.4059L97.0998 101.348L67.2178 60.5059L0.384766 70.4059Z" fill="#FFE680"/>
<path d="M97.0952 101.346V0.125977L126.925 60.483L97.0952 101.346Z" fill="#FFDD55"/>
<path d="M37.085 183.566L48.346 117.025L97.103 101.346L37.085 183.566Z" fill="#FFD42A"/>
</g>
<defs>
<clipPath id="clip0_605_79">
<rect width="194.22" height="184.73" fill="white"/>
</clipPath>
</defs>
</svg>
